<svg width="117" height="21" viewBox="0 0 117 21" fill="none" xmlns="http://www.w3.org/2000/svg">
<path fill-rule="evenodd" clip-rule="evenodd" d="M49.2643 5.28245H51.4056L54.0821 13.3096L56.2233 5.28245H58.8998L55.1527 17.0593H53.0115L50.3349 9.02958L47.6584 17.0593H45.5172L41.77 5.28245H44.4465L46.5877 13.3096L49.2643 5.28245ZM63.3276 15.3055C65.08 15.3055 66.3942 14.3194 66.3942 12.8726V12.1495C65.7153 11.8866 64.7732 11.6892 63.7436 11.6892C62.0787 11.6892 61.093 12.3682 61.093 13.5519V13.5963C61.093 14.6919 62.0787 15.3055 63.3276 15.3055ZM60.5058 5.88845C61.4842 5.5352 62.5706 5.31112 63.9887 5.31112C67.4058 5.31112 69.0707 7.01031 69.0707 10.1002V17.0593H66.3942V15.6348C65.6054 16.5765 64.4489 17.3 62.6962 17.3C60.5058 17.3 58.5783 16.0509 58.5783 13.7275V13.6842C58.5783 11.1852 60.572 9.95753 63.2661 9.95753C64.6679 9.95753 65.4961 10.155 66.3942 10.4398V10.155C66.3942 8.55492 65.4564 7.67817 63.6164 7.67817C62.4171 7.67817 61.472 7.92562 60.5058 8.31096V5.88845ZM70.6766 17.0593V1H73.3531V17.0593H70.6766ZM74.9591 17.0593V1H77.6356L77.6891 17.0593H74.9591ZM83.6693 15.3055C85.4216 15.3055 86.7359 14.3194 86.7359 12.8726V12.1495C86.057 11.8866 85.1148 11.6892 84.0853 11.6892C82.4203 11.6892 81.4347 12.3682 81.4347 13.5519V13.5963C81.4347 14.6919 82.4203 15.3055 83.6693 15.3055ZM80.8475 5.88845C81.8259 5.5352 82.9123 5.31112 84.3304 5.31112C87.7475 5.31112 89.4124 7.01031 89.4124 10.1002V17.0593H86.7359V15.6348C85.9471 16.5765 84.7905 17.3 83.0379 17.3C80.8475 17.3 78.9199 16.0509 78.9199 13.7275V13.6842C78.9199 11.1852 80.9136 9.95753 83.6078 9.95753C85.0096 9.95753 85.8378 10.155 86.7359 10.4398V10.155C86.7359 8.55492 85.7982 7.67817 83.9581 7.67817C82.7587 7.67817 81.8137 7.92562 80.8475 8.31096V5.88845ZM91.0183 17.0593V5.28245H93.6948V7.89052C94.4177 6.15915 95.7214 4.97551 97.7584 5.06323V7.86875H97.6052C95.2835 7.86875 93.6948 9.38057 93.6948 12.4492V17.0593H91.0183ZM116.713 9.46848V17.0593H114.036V10.4312C114.036 8.59012 113.208 7.4523 111.719 7.4523C110.273 7.4523 109.219 8.56798 109.219 10.4312V17.0593H106.542V10.2578C106.542 8.4601 105.717 7.4523 104.249 7.4523C102.782 7.4523 101.724 8.63365 101.724 10.4312V17.0593H99.0478V5.28245H101.724V7.03564C102.47 6.00548 103.527 5.04106 105.301 5.04106C106.966 5.04106 108.127 5.85201 108.74 7.07902C109.682 5.85201 110.908 5.04106 112.661 5.04106C115.18 5.04106 116.713 6.64136 116.713 9.46848Z" fill="white"/>
<path d="M0 6.14748L14.4825 0L14.4825 8.74519L27.8587 3.06737L27.8587 10.0837L35 7.05241V12.0315L27.8587 15.0628L27.8587 12.4032L14.4687 18.0869V13.991L0 20.1326V6.14748Z" fill="#FC7303"/>
</svg>